<svg width="80" height="80" viewBox="0 0 80 80" fill="none" xmlns="http://www.w3.org/2000/svg">
<rect opacity="0.5" width="80" height="80" rx="40" fill="#0D111A"/>
<path fill-rule="evenodd" clip-rule="evenodd" d="M50.4745 34.4467C50.2195 33.7898 49.8794 33.2334 49.323 32.677C48.7666 32.1206 48.2102 31.7805 47.5533 31.5255C46.9196 31.2782 46.1855 31.1082 45.1267 31.0618L45.1088 31.061C44.0564 31.0153 43.7049 31 41 31C38.2798 31 37.9397 31.0077 36.8733 31.0618C35.8068 31.1082 35.0804 31.2782 34.4467 31.5255C33.7898 31.7805 33.2334 32.1206 32.677 32.677C32.1206 33.2334 31.7805 33.7898 31.5255 34.4467C31.2782 35.0804 31.1082 35.8145 31.0618 36.8733L31.061 36.8912C31.0153 37.9436 31 38.2951 31 41C31 43.7202 31.0077 44.0603 31.0618 45.1267C31.1082 46.1932 31.2782 46.9196 31.5255 47.5533C31.7805 48.2102 32.1206 48.7666 32.677 49.323C33.2334 49.8794 33.7898 50.2195 34.4467 50.4745C35.0804 50.7218 35.8145 50.8918 36.8733 50.9382L36.8912 50.939C37.9436 50.9847 38.2951 51 41 51C43.7202 51 44.0603 50.9923 45.1267 50.9382C46.1932 50.8918 46.9196 50.7218 47.5533 50.4745C48.2102 50.2195 48.7666 49.8794 49.323 49.323C49.8794 48.7666 50.2195 48.2102 50.4745 47.5533C50.7218 46.9196 50.8918 46.1855 50.9382 45.1267L50.939 45.1088C50.9847 44.0564 51 43.7049 51 41C51 38.2798 50.9923 37.9397 50.9382 36.8733C50.8918 35.8068 50.7218 35.0804 50.4745 34.4467ZM48.4435 44.6935C48.4011 45.5833 48.2528 46.0706 48.1257 46.3884C47.9633 46.8121 47.7585 47.1229 47.4407 47.4407C47.1229 47.7585 46.8192 47.9562 46.3884 48.1257C46.0636 48.2528 45.5833 48.4011 44.6935 48.4435L44.6475 48.4455C43.7164 48.4863 43.4044 48.5 41 48.5C38.5565 48.5 38.2669 48.4929 37.3065 48.4435C36.4167 48.4011 35.9294 48.2528 35.6116 48.1257C35.1879 47.9633 34.8771 47.7585 34.5593 47.4407C34.2415 47.1229 34.0438 46.8192 33.8743 46.3884C33.7472 46.0636 33.5989 45.5833 33.5565 44.6935L33.5548 44.6553C33.5138 43.7179 33.5 43.4041 33.5 41C33.5 38.5636 33.5071 38.2669 33.5565 37.3065C33.5989 36.4167 33.7472 35.9294 33.8743 35.6116C34.0367 35.1879 34.2415 34.8771 34.5593 34.5593C34.8771 34.2415 35.1808 34.0438 35.6116 33.8743C35.9364 33.7472 36.4167 33.5989 37.3065 33.5565L37.3447 33.5548C38.2821 33.5138 38.5959 33.5 41 33.5C43.4364 33.5 43.7331 33.5071 44.6935 33.5565C45.5833 33.5989 46.0706 33.7472 46.3884 33.8743C46.8121 34.0367 47.1229 34.2415 47.4407 34.5593C47.7585 34.8771 47.9562 35.1808 48.1257 35.6116C48.2528 35.9364 48.4011 36.4167 48.4435 37.3065L48.4452 37.3447V37.3447C48.4862 38.2821 48.5 38.5959 48.5 41C48.5 43.4132 48.4861 43.7272 48.4447 44.6662L48.4435 44.6935ZM47.25 36C47.25 36.6904 46.6904 37.25 46 37.25C45.3096 37.25 44.75 36.6904 44.75 36C44.75 35.3096 45.3096 34.75 46 34.75C46.6904 34.75 47.25 35.3096 47.25 36ZM41 36C38.2406 36 36 38.2406 36 41C36 43.7594 38.2406 46 41 46C43.7594 46 46 43.7594 46 41C46 38.2406 43.7594 36 41 36ZM38.5 41C38.5 42.3831 39.6227 43.5 41 43.5C42.3773 43.5 43.5 42.3773 43.5 41C43.5 39.6169 42.3831 38.5 41 38.5C39.6169 38.5 38.5 39.6227 38.5 41Z" fill="white"/>
</svg>
